<?xml version="1.0" encoding="UTF-8"?><svg id="a" xmlns="http://www.w3.org/2000/svg" viewBox="0 0 427.5 72.04"><path d="m0,61.77V11.15h21.91c4.53,0,8.44.74,11.72,2.21,3.28,1.47,5.81,3.58,7.59,6.33,1.78,2.75,2.68,6,2.68,9.76s-.89,7.08-2.68,9.8c-1.78,2.72-4.32,4.8-7.59,6.22-3.28,1.42-7.18,2.13-11.72,2.13H6.44l5.35-5.06v19.24H0Zm11.79-17.94l-5.35-5.57h14.83c3.57,0,6.27-.77,8.1-2.31,1.83-1.54,2.75-3.71,2.75-6.51s-.92-4.95-2.75-6.47c-1.83-1.52-4.53-2.28-8.1-2.28H6.44l5.35-5.57v28.71Zm20.47,17.94l-12.73-18.37h12.58l12.73,18.37h-12.58Z" style="stroke-width:0px;"/><path d="m64.8,52.37h27.56v9.4h-39.2V11.15h38.26v9.4h-26.61v31.82Zm-.87-20.9h24.37v9.19h-24.37v-9.19Z" style="stroke-width:0px;"/><path d="m125.91,62.64c-3.9,0-7.53-.64-10.88-1.92-3.35-1.28-6.26-3.1-8.71-5.46-2.46-2.36-4.38-5.14-5.75-8.32s-2.06-6.68-2.06-10.49.69-7.3,2.06-10.49,3.3-5.95,5.79-8.32c2.48-2.36,5.4-4.18,8.75-5.46,3.35-1.28,6.98-1.92,10.88-1.92,4.39,0,8.36.76,11.93,2.28,3.57,1.52,6.56,3.75,8.97,6.69l-7.59,6.94c-1.69-1.98-3.61-3.47-5.75-4.48s-4.47-1.52-6.98-1.52c-2.36,0-4.53.4-6.51,1.19-1.98.8-3.69,1.92-5.13,3.36-1.45,1.45-2.57,3.16-3.36,5.13-.8,1.98-1.19,4.17-1.19,6.58s.4,4.6,1.19,6.58c.8,1.98,1.92,3.69,3.36,5.13,1.45,1.45,3.16,2.57,5.13,3.36,1.98.8,4.15,1.19,6.51,1.19,2.51,0,4.83-.52,6.98-1.55,2.15-1.04,4.06-2.54,5.75-4.52l7.59,6.94c-2.41,2.94-5.4,5.18-8.97,6.73-3.57,1.54-7.57,2.31-12.01,2.31Z" style="stroke-width:0px;"/><path d="m154.7,61.77V11.15h21.91c4.53,0,8.44.74,11.72,2.21,3.28,1.47,5.81,3.58,7.59,6.33,1.78,2.75,2.68,6,2.68,9.76s-.89,7.08-2.68,9.8c-1.78,2.72-4.32,4.8-7.59,6.22-3.28,1.42-7.18,2.13-11.72,2.13h-15.48l5.35-5.06v19.24h-11.79Zm11.79-17.94l-5.35-5.57h14.83c3.57,0,6.27-.77,8.1-2.31,1.83-1.54,2.75-3.71,2.75-6.51s-.92-4.95-2.75-6.47c-1.83-1.52-4.53-2.28-8.1-2.28h-14.83l5.35-5.57v28.71Zm20.47,17.94l-12.73-18.37h12.58l12.73,18.37h-12.58Z" style="stroke-width:0px;"/><path d="m230.35,62.64c-7.18,0-12.8-2-16.85-6-4.05-4-6.08-9.74-6.08-17.21V11.15h11.79v27.99c0,4.77.99,8.23,2.97,10.38,1.98,2.15,4.73,3.22,8.25,3.22s6.34-1.07,8.32-3.22c1.98-2.14,2.97-5.6,2.97-10.38V11.15h11.5v28.28c0,7.47-2.03,13.21-6.08,17.21-4.05,4-9.64,6-16.78,6Z" style="stroke-width:0px;"/><path d="m274.47,61.77V20.69h-16.2v-9.55h44.12v9.55h-16.2v41.08h-11.72Z" style="stroke-width:0px;"/><path d="m320.32,52.37h27.56v9.4h-39.2V11.15h38.26v9.4h-26.61v31.82Zm-.87-20.9h24.37v9.19h-24.37v-9.19Z" style="stroke-width:0px;"/><rect x="360.22" width="19.65" height="72.04" style="fill:#615dff; stroke-width:0px;"/><rect x="384.04" width="19.65" height="72.04" style="fill:#70a2f9; stroke-width:0px;"/><rect x="407.85" width="19.65" height="72.04" style="fill:#3dd9eb; stroke-width:0px;"/></svg>