<?xml version="1.0" encoding="UTF-8"?><svg id="a" xmlns="http://www.w3.org/2000/svg" viewBox="0 0 427.5 72.04"><path d="m0,61.77V12.67c0-.84.68-1.52,1.52-1.52h20.39c4.53,0,8.44.74,11.72,2.21,3.28,1.47,5.81,3.58,7.59,6.33s2.68,6,2.68,9.76-.89,7.08-2.68,9.8c-1.78,2.72-4.32,4.8-7.59,6.22-3.28,1.42-7.18,2.13-11.72,2.13h-11.64c-1.38,0-2.05-1.68-1.05-2.63h0c.97-.92,2.57-.23,2.57,1.11v14.18c0,.84-.68,1.52-1.52,1.52H0Zm9.17-20.67l-.25-.26c-.93-.97-.24-2.58,1.1-2.58h11.26c3.57,0,6.27-.77,8.1-2.31s2.75-3.71,2.75-6.51-.92-4.95-2.75-6.47-4.53-2.28-8.1-2.28h-11.26c-1.34,0-2.03-1.61-1.1-2.58l.25-.26c.95-.99,2.62-.32,2.62,1.06v21.14c0,1.37-1.67,2.04-2.62,1.06Zm22.64,20.01l-10.62-15.32c-.7-1.01.02-2.39,1.25-2.39h8.87c.5,0,.97.24,1.25.66l10.62,15.32c.7,1.01-.02,2.39-1.25,2.39h-8.87c-.5,0-.97-.24-1.25-.66Z" style="fill:#2a3547; stroke-width:0px;"/><path d="m64.8,52.37h22.97c2.54,0,4.59,2.06,4.59,4.59v.21c0,2.54-2.06,4.59-4.59,4.59h-30.01c-2.54,0-4.59-2.06-4.59-4.59V15.74c0-2.54,2.06-4.59,4.59-4.59h29.07c2.54,0,4.59,2.06,4.59,4.59v.21c0,2.54-2.06,4.59-4.59,4.59h-17.42c-2.54,0-4.59,2.06-4.59,4.59v27.23h0Zm-.87-20.9h19.78c2.54,0,4.59,2.06,4.59,4.59h0c0,2.54-2.06,4.6-4.59,4.6h-19.78v-9.19Z" style="fill:#2a3547; stroke-width:0px;"/><path d="m125.91,62.64c-3.9,0-7.53-.64-10.88-1.92s-6.26-3.1-8.71-5.46c-2.46-2.36-4.38-5.14-5.75-8.32s-2.06-6.68-2.06-10.49.69-7.3,2.06-10.49,3.3-5.95,5.79-8.32c2.48-2.36,5.4-4.18,8.75-5.46s6.98-1.92,10.88-1.92c4.39,0,8.36.76,11.93,2.28,1.64.7,3.15,1.54,4.54,2.54,2.6,1.86,2.75,5.69.39,7.85l-.09.08c-1.83,1.68-4.56,1.73-6.57.26-.84-.61-1.72-1.14-2.64-1.57-2.14-1.01-4.47-1.52-6.98-1.52-2.36,0-4.53.4-6.51,1.19-1.98.8-3.69,1.92-5.13,3.36-1.45,1.45-2.57,3.16-3.36,5.13-.8,1.98-1.19,4.17-1.19,6.58s.4,4.6,1.19,6.58c.8,1.98,1.92,3.69,3.36,5.13,1.45,1.45,3.16,2.57,5.13,3.36,1.98.8,4.15,1.19,6.51,1.19,2.51,0,4.83-.52,6.98-1.55.92-.45,1.8-.98,2.63-1.59,2.01-1.48,4.75-1.44,6.59.25l.09.08c2.36,2.15,2.21,5.97-.38,7.84-1.4,1.01-2.92,1.86-4.56,2.58-3.57,1.54-7.57,2.31-12.01,2.31v.04Z" style="fill:#2a3547; stroke-width:0px;"/><path d="m154.7,61.77V12.67c0-.84.68-1.52,1.52-1.52h20.39c4.53,0,8.44.74,11.72,2.21s5.81,3.58,7.59,6.33,2.68,6,2.68,9.76-.89,7.08-2.68,9.8c-1.78,2.72-4.32,4.8-7.59,6.22-3.28,1.42-7.18,2.13-11.72,2.13h-11.65c-1.38,0-2.05-1.68-1.05-2.63h0c.97-.92,2.57-.23,2.57,1.11v14.18c0,.84-.68,1.52-1.52,1.52h-10.27,0Zm9.17-20.67l-.25-.26c-.93-.97-.24-2.58,1.1-2.58h11.26c3.57,0,6.27-.77,8.1-2.31s2.75-3.71,2.75-6.51-.92-4.95-2.75-6.47-4.53-2.28-8.1-2.28h-11.26c-1.34,0-2.03-1.61-1.1-2.58l.25-.26c.95-.99,2.62-.32,2.62,1.06v21.14c0,1.37-1.67,2.04-2.62,1.06Zm22.64,20.01l-10.62-15.32c-.7-1.01.02-2.39,1.25-2.39h8.87c.5,0,.97.24,1.25.66l10.62,15.32c.7,1.01-.02,2.39-1.25,2.39h-8.87c-.5,0-.97-.24-1.25-.66Z" style="fill:#2a3547; stroke-width:0px;"/><path d="m230.35,62.64c-7.18,0-12.8-2-16.85-6s-6.08-9.74-6.08-17.21v-22.53c0-3.18,2.57-5.75,5.75-5.75h.29c3.18,0,5.75,2.57,5.75,5.75v22.24c0,4.77.99,8.23,2.97,10.38s4.73,3.22,8.25,3.22,6.34-1.07,8.32-3.22c1.98-2.14,2.97-5.6,2.97-10.38v-22.24c0-3.18,2.57-5.75,5.75-5.75h0c3.18,0,5.75,2.57,5.75,5.75v22.53c0,7.47-2.03,13.21-6.08,17.21s-9.64,6-16.78,6h0Z" style="fill:#2a3547; stroke-width:0px;"/><path d="m274.47,61.77V20.69h-11.43c-2.64,0-4.77-2.14-4.77-4.77h0c0-2.64,2.14-4.78,4.77-4.78h34.57c2.64,0,4.77,2.14,4.77,4.77h0c0,2.64-2.14,4.78-4.77,4.78h-11.43v36.31c0,2.64-2.14,4.77-4.77,4.77h-6.95,0Z" style="fill:#2a3547; stroke-width:0px;"/><path d="m320.32,52.37h22.97c2.54,0,4.59,2.06,4.59,4.59v.21c0,2.54-2.06,4.59-4.59,4.59h-30.01c-2.54,0-4.59-2.06-4.59-4.59V15.74c0-2.54,2.06-4.59,4.59-4.59h29.07c2.54,0,4.59,2.06,4.59,4.59v.21c0,2.54-2.06,4.59-4.59,4.59h-17.42c-2.54,0-4.59,2.06-4.59,4.59v27.23h-.01Zm-.87-20.9h19.77c2.54,0,4.59,2.06,4.59,4.59h0c0,2.54-2.06,4.6-4.59,4.6h-19.77v-9.19Z" style="fill:#2a3547; stroke-width:0px;"/><rect x="360.22" y="0" width="19.65" height="72.04" rx="9.82" ry="9.82" style="fill:#615dff; stroke-width:0px;"/><rect x="384.04" y="0" width="19.65" height="72.04" rx="9.82" ry="9.82" style="fill:#70a2f9; stroke-width:0px;"/><rect x="407.85" y="0" width="19.65" height="72.04" rx="9.82" ry="9.82" style="fill:#3dd9eb; stroke-width:0px;"/></svg>